<svg xmlns="http://www.w3.org/2000/svg" xmlns:xlink="http://www.w3.org/1999/xlink" width="500" zoomAndPan="magnify" viewBox="0 0 375 374.999991" height="500" preserveAspectRatio="xMidYMid meet" version="1.0"><defs><clipPath id="0a747b845d"><path d="M 67.34375 0 L 273.59375 0 L 273.59375 375 L 67.34375 375 Z M 67.34375 0 " clip-rule="nonzero"/></clipPath><clipPath id="8f53095dab"><path d="M 249.4375 204.882812 L 249.847656 204.882812 L 249.847656 205.164062 L 249.4375 205.164062 Z M 249.4375 204.882812 " clip-rule="nonzero"/></clipPath><clipPath id="5fab905f98"><path d="M 249.824219 205.050781 C 249.074219 205.351562 249.675781 204.898438 249.675781 204.898438 " clip-rule="nonzero"/></clipPath><clipPath id="8f568a1f1d"><path d="M 244.164062 203.308594 L 244.519531 203.308594 L 244.519531 203.5625 L 244.164062 203.5625 Z M 244.164062 203.308594 " clip-rule="nonzero"/></clipPath><clipPath id="28be918fc4"><path d="M 244.5 203.476562 C 243.824219 203.699219 244.425781 203.324219 244.425781 203.324219 " clip-rule="nonzero"/></clipPath><clipPath id="982c647624"><path d="M 171.0625 145.71875 L 175.804688 145.71875 L 175.804688 195.765625 L 171.0625 195.765625 Z M 171.0625 145.71875 " clip-rule="nonzero"/></clipPath><clipPath id="099fb210e7"><path d="M 175.800781 146.925781 C 172.800781 194.101562 173.398438 194.550781 173.175781 195.074219 C 173.023438 195.375 172.351562 195.824219 172.125 195.75 C 171.976562 195.601562 171.75 194.625 171.898438 194.476562 C 172.125 194.324219 173.023438 194.550781 173.101562 194.773438 C 173.25 194.925781 172.726562 195.75 172.425781 195.75 C 172.199219 195.824219 171.675781 195.226562 171.675781 195 C 171.75 194.699219 172.574219 194.25 172.726562 194.324219 C 172.949219 194.398438 173.175781 195.375 172.949219 195.523438 C 172.800781 195.75 172.125 195.675781 171.898438 195.523438 C 171.449219 195.226562 171.300781 194.398438 171.148438 193.726562 C 171 192.824219 171.226562 192.300781 171.300781 190.800781 C 171.675781 184.800781 172.949219 151.949219 174.226562 147.300781 C 174.523438 146.398438 174.824219 145.726562 175.125 145.726562 C 175.351562 145.726562 175.800781 146.925781 175.800781 146.925781 " clip-rule="nonzero"/></clipPath><clipPath id="93cb237104"><path d="M 152.832031 106.605469 L 198.582031 106.605469 L 198.582031 147.855469 L 152.832031 147.855469 Z M 152.832031 106.605469 " clip-rule="nonzero"/></clipPath><clipPath id="a0ab7e12c0"><path d="M 159.355469 193.253906 L 173.195312 193.253906 L 173.195312 218.640625 L 159.355469 218.640625 Z M 159.355469 193.253906 " clip-rule="nonzero"/></clipPath><clipPath id="e83226ccf0"><path d="M 172.050781 195.226562 C 168.523438 195.375 166.351562 197.476562 165.226562 199.273438 C 163.949219 201.148438 163.425781 203.476562 162.75 206.101562 C 161.851562 209.550781 161.925781 216.898438 160.875 218.175781 C 160.574219 218.550781 160.050781 218.699219 159.898438 218.550781 C 159.675781 218.398438 159.675781 217.273438 159.898438 217.199219 C 160.050781 217.125 160.949219 217.648438 160.949219 217.875 C 160.949219 218.101562 160.425781 218.625 160.199219 218.625 C 159.898438 218.625 159.601562 218.324219 159.449219 217.800781 C 159.074219 216.523438 159.898438 212.324219 160.5 209.398438 C 161.25 205.949219 162.601562 200.925781 163.949219 198.449219 C 164.773438 196.949219 165.601562 196.125 166.648438 195.226562 C 167.625 194.398438 168.75 193.5 169.800781 193.351562 C 170.851562 193.199219 172.5 193.574219 172.949219 194.101562 C 173.175781 194.324219 173.175781 194.851562 173.023438 195.074219 C 172.875 195.226562 172.050781 195.226562 172.050781 195.226562 " clip-rule="nonzero"/></clipPath></defs><g clip-path="url(#0a747b845d)"><path fill="#000000" d="M 222.816406 4.515625 C 216.203125 8.601562 215.574219 8.839844 213.214844 7.972656 C 210.929688 7.109375 210.300781 7.265625 205.734375 10.097656 C 201.957031 12.457031 200.695312 13.632812 200.382812 15.363281 C 200.066406 17.25 198.570312 18.351562 190.9375 22.753906 C 185.898438 25.582031 179.992188 29.121094 177.789062 30.535156 C 175.507812 31.953125 172.515625 33.523438 170.941406 33.917969 C 169.445312 34.308594 167.082031 35.726562 165.589844 37.140625 C 164.171875 38.476562 161.101562 40.597656 158.898438 41.855469 L 154.726562 44.214844 L 154.726562 55.769531 L 159.839844 58.679688 L 165.035156 61.507812 L 168.894531 59.859375 C 171.019531 58.914062 172.910156 58.207031 173.144531 58.207031 C 173.382812 58.207031 173.617188 66.855469 173.617188 77.390625 C 173.617188 92.324219 173.382812 96.726562 172.59375 97.4375 C 171.253906 98.535156 171.335938 106.789062 172.671875 107.65625 C 173.382812 108.046875 172.671875 108.992188 170.546875 110.722656 C 165.273438 114.964844 164.40625 121.804688 168.1875 130.453125 C 171.414062 138 178.496094 141.851562 182.90625 138.628906 C 185.976562 136.347656 187 133.910156 187 128.410156 C 187 123.691406 184.324219 114.335938 181.804688 110.484375 C 181.175781 109.464844 180.859375 106.867188 181.015625 103.09375 C 181.253906 98.222656 181.015625 97.121094 179.835938 96.019531 C 178.417969 94.921875 178.339844 93.347656 178.339844 76.132812 L 178.339844 57.421875 L 180.308594 56.164062 C 181.410156 55.457031 182.277344 54.277344 182.277344 53.570312 C 182.277344 52.625 190.699219 46.808594 195.816406 44.292969 C 196.132812 44.136719 197.15625 44.371094 198.019531 44.84375 C 199.59375 45.707031 199.59375 46.257812 199.59375 121.097656 L 199.59375 196.566406 L 196.523438 198.53125 L 193.453125 200.574219 L 183.773438 194.914062 C 178.417969 191.847656 172.042969 188.074219 169.523438 186.660156 C 167.082031 185.167969 164.878906 183.988281 164.566406 183.988281 C 164.011719 183.988281 145.671875 194.445312 109.855469 215.117188 C 100.566406 220.464844 89.78125 226.675781 85.84375 228.875 C 81.988281 231.078125 76.164062 234.535156 73.09375 236.421875 C 67.738281 239.722656 67.34375 240.195312 67.34375 242.632812 C 67.34375 244.363281 67.816406 245.542969 68.527344 245.777344 C 69.472656 246.171875 69.707031 247.664062 69.707031 252.382812 C 69.707031 255.839844 70.101562 258.828125 70.496094 259.0625 C 70.964844 259.378906 71.28125 269.910156 71.28125 287.992188 L 71.28125 316.449219 L 77.105469 320.222656 C 82.851562 323.996094 83.011719 323.996094 84.980469 322.738281 C 86.554688 321.71875 87.027344 320.695312 87.027344 318.730469 C 87.027344 317.234375 87.261719 316.058594 87.496094 316.058594 C 87.734375 316.058594 94.03125 319.671875 101.429688 323.996094 C 108.910156 328.398438 119.066406 334.375 124.023438 337.28125 C 128.984375 340.191406 139.609375 346.402344 147.5625 351.039062 L 161.96875 359.53125 L 161.652344 364.480469 L 161.335938 369.355469 L 166.296875 372.1875 C 172.832031 375.960938 173.617188 375.722656 167.554688 371.871094 L 162.597656 368.726562 L 162.597656 339.246094 C 162.597656 313.382812 162.753906 309.847656 163.777344 310.238281 C 164.40625 310.554688 164.957031 311.339844 164.957031 312.125 C 164.957031 312.992188 166.53125 314.484375 168.894531 315.976562 C 171.964844 317.863281 172.832031 318.886719 172.910156 320.539062 C 172.988281 321.796875 173.300781 334.375 173.539062 348.679688 L 174.089844 374.625 L 174.246094 346.558594 L 174.40625 318.414062 L 179.914062 315.664062 C 182.90625 314.171875 185.582031 312.914062 185.820312 312.914062 C 186.054688 312.914062 186.210938 324.863281 186.210938 339.40625 C 186.132812 360.867188 185.976562 366.289062 185.03125 367.390625 C 183.0625 370.0625 178.890625 372.65625 177.394531 372.1875 C 176.453125 371.949219 175.980469 372.1875 175.980469 372.894531 C 175.980469 374.78125 181.332031 372.738281 184.402344 369.671875 C 186.84375 367.3125 187 366.761719 187 361.808594 L 187 356.542969 L 190.777344 354.5 C 192.824219 353.398438 200.144531 349.230469 207.074219 345.144531 C 214 341.132812 224.078125 335.316406 229.507812 332.171875 C 234.941406 329.027344 241.867188 325.097656 244.859375 323.367188 L 250.371094 320.144531 L 250.761719 324.152344 C 251.394531 330.285156 252.574219 330.441406 259.894531 325.410156 L 266.113281 321.167969 L 266.347656 293.652344 C 266.429688 276.90625 266.820312 265.902344 267.292969 265.429688 C 267.765625 264.957031 268.082031 262.992188 268.082031 260.949219 C 268.082031 257.648438 268.394531 257.019531 270.835938 255.210938 C 273.039062 253.558594 273.589844 252.539062 273.589844 250.496094 C 273.589844 247.507812 274.535156 248.214844 248.085938 231.707031 C 235.332031 223.765625 233.757812 222.507812 231.242188 218.578125 C 229.746094 216.21875 226.597656 211.34375 224.234375 207.808594 L 220.0625 201.28125 L 220.0625 40.835938 L 225.019531 32.738281 C 229.429688 25.269531 230.375 24.324219 234.703125 21.730469 C 241.867188 17.644531 242.183594 17.171875 242.023438 11.355469 C 241.945312 8.683594 241.632812 6.085938 241.394531 5.695312 C 240.84375 4.828125 231.476562 0.0351562 230.53125 0.113281 C 230.21875 0.113281 226.753906 2.078125 222.816406 4.515625 Z M 235.886719 3.652344 C 239.585938 5.457031 239.820312 5.773438 238.484375 6.714844 C 235.964844 8.367188 221.320312 16.542969 220.691406 16.542969 C 220.296875 16.542969 220.0625 15.519531 220.0625 14.183594 C 220.0625 12.691406 219.511719 11.589844 218.488281 11.039062 C 217.621094 10.570312 217.070312 9.859375 217.308594 9.390625 C 218.015625 8.289062 229.664062 1.605469 230.925781 1.605469 C 231.476562 1.605469 233.757812 2.550781 235.886719 3.652344 Z M 240.527344 12.0625 L 240.527344 17.015625 L 234.074219 20.789062 C 224.15625 26.527344 210.378906 34.625 201.328125 40.046875 C 196.839844 42.644531 193.0625 44.84375 192.824219 44.84375 C 192.667969 44.84375 190.226562 46.257812 187.394531 47.988281 L 182.277344 51.132812 L 182.277344 40.519531 L 195.109375 33.128906 C 207.625 25.898438 225.257812 15.519531 234.625 10.019531 C 237.222656 8.523438 239.585938 7.1875 239.976562 7.1875 C 240.292969 7.109375 240.527344 9.3125 240.527344 12.0625 Z M 217.542969 13.003906 C 216.992188 13.554688 215.023438 14.8125 213.214844 15.757812 L 209.984375 17.566406 L 206.207031 15.363281 L 202.507812 13.242188 L 206.757812 10.570312 L 211.007812 7.972656 L 214.789062 10.019531 C 217.777344 11.667969 218.332031 12.296875 217.542969 13.003906 Z M 208.882812 20.003906 C 209.199219 22.519531 208.960938 22.519531 205.105469 20.082031 C 202.742188 18.585938 201.957031 17.566406 201.957031 16.070312 L 201.957031 14.027344 L 205.339844 15.992188 C 207.625 17.40625 208.726562 18.585938 208.882812 20.003906 Z M 219.273438 16.070312 C 219.273438 17.566406 218.332031 18.507812 215.179688 20.316406 C 212.898438 21.652344 210.773438 22.519531 210.457031 22.359375 C 208.804688 21.261719 210.144531 18.824219 213.605469 16.699219 C 218.171875 13.714844 219.273438 13.632812 219.273438 16.070312 Z M 207.859375 23.539062 C 207.859375 24.640625 183.300781 39.339844 181.488281 39.339844 C 180.308594 39.339844 174.484375 35.097656 174.484375 34.230469 C 174.484375 33.757812 178.183594 31.324219 182.671875 28.726562 C 187.234375 26.132812 192.984375 22.753906 195.5 21.179688 L 199.988281 18.351562 L 203.925781 20.550781 C 206.128906 21.808594 207.859375 23.148438 207.859375 23.539062 Z M 224.46875 31.792969 C 221.242188 37.53125 220.0625 38.710938 220.0625 36.039062 C 220.0625 33.210938 225.808594 25.191406 226.988281 26.371094 C 227.148438 26.527344 226.042969 28.964844 224.46875 31.792969 Z M 218.488281 114.808594 C 218.488281 186.503906 218.332031 198.058594 217.386719 197.667969 C 216.757812 197.429688 215.496094 197.589844 214.628906 198.136719 C 213.214844 198.847656 212.976562 199.710938 212.976562 203.640625 C 212.976562 207.730469 213.371094 208.90625 216.125 213.152344 C 220.378906 219.835938 220.296875 220.9375 214.945312 223.53125 C 212.503906 224.710938 210.378906 225.652344 210.222656 225.652344 C 209.984375 225.652344 209.828125 183.042969 209.828125 131.003906 L 209.828125 36.355469 L 213.605469 33.996094 C 215.652344 32.660156 217.542969 31.558594 217.9375 31.558594 C 218.25 31.480469 218.488281 68.976562 218.488281 114.808594 Z M 176.058594 37.613281 C 179.050781 39.65625 180.386719 41.148438 180.464844 42.484375 C 180.703125 44.371094 180.625 44.371094 179.992188 42.800781 C 179.601562 41.855469 177.789062 40.046875 175.980469 38.871094 C 174.246094 37.613281 172.199219 36.195312 171.414062 35.644531 C 170.703125 35.097656 170.46875 34.625 170.941406 34.625 C 171.414062 34.625 173.695312 35.960938 176.058594 37.613281 Z M 176.214844 40.363281 L 179.128906 42.644531 L 178.96875 49.402344 L 178.8125 56.242188 L 178.339844 50.738281 C 178.027344 47.675781 177.789062 57.027344 177.710938 71.414062 C 177.554688 95.941406 177.476562 97.59375 176.214844 97.355469 C 174.875 97.121094 174.796875 95.15625 174.5625 70.941406 L 174.40625 44.765625 L 170.785156 42.644531 C 164.644531 39.027344 164.328125 38.710938 165.824219 38.160156 C 167.082031 37.691406 175.507812 42.40625 177.003906 44.371094 C 177.476562 44.921875 177.554688 44.84375 177.394531 44.058594 C 177.160156 43.429688 175.035156 41.542969 172.515625 39.890625 C 170.074219 38.242188 168.265625 36.589844 168.5 36.195312 C 168.972656 35.410156 171.335938 36.667969 176.214844 40.363281 Z M 209.042969 43.742188 L 209.042969 50.503906 L 206.523438 48.851562 C 205.105469 47.910156 202.585938 46.417969 201.011719 45.472656 C 199.359375 44.53125 198.019531 43.585938 198.019531 43.351562 C 198.097656 42.878906 207.46875 37.21875 208.492188 37.0625 C 208.804688 36.984375 209.042969 40.046875 209.042969 43.742188 Z M 168.5 42.25 C 170.46875 43.507812 172.042969 44.6875 172.042969 45.078125 C 172.042969 45.394531 170.546875 46.417969 168.65625 47.28125 L 165.273438 48.933594 L 161.101562 46.808594 C 158.816406 45.707031 157.164062 44.53125 157.402344 44.292969 C 158.1875 43.507812 163.777344 40.207031 164.328125 40.128906 C 164.644531 40.128906 166.53125 41.070312 168.5 42.25 Z M 164.800781 54.433594 C 164.957031 57.34375 164.722656 58.992188 164.171875 58.992188 C 162.988281 58.992188 156.769531 55.769531 156.140625 54.828125 C 155.746094 54.199219 155.828125 46.964844 156.21875 45.789062 C 156.300781 45.628906 158.1875 46.496094 160.472656 47.753906 L 164.566406 49.953125 Z M 173.617188 51.527344 C 173.617188 56.949219 173.066406 57.65625 167.554688 59.308594 C 165.824219 59.859375 165.746094 59.703125 165.746094 54.90625 C 165.746094 49.953125 165.746094 49.875 168.738281 48.144531 C 173.222656 45.550781 173.617188 45.789062 173.617188 51.527344 Z M 205.734375 49.796875 L 209.042969 51.996094 L 209.042969 138.472656 C 209.042969 185.953125 208.804688 224.867188 208.570312 224.867188 C 208.332031 224.867188 206.363281 223.765625 204.238281 222.351562 L 200.382812 219.914062 L 200.382812 133.125 C 200.382812 63.867188 200.617188 46.417969 201.40625 46.886719 C 201.878906 47.28125 203.847656 48.539062 205.734375 49.796875 Z M 178.96875 99.953125 C 177.554688 100.972656 173.382812 100.5 172.988281 99.242188 C 172.832031 98.613281 173.617188 98.300781 175.507812 98.300781 C 177.003906 98.300781 178.496094 97.828125 178.890625 97.277344 C 179.285156 96.648438 179.601562 96.726562 179.757812 97.828125 C 179.914062 98.613281 179.601562 99.636719 178.96875 99.953125 Z M 179.914062 102.230469 C 179.914062 103.488281 176.6875 104.746094 174.71875 104.273438 C 171.335938 103.410156 172.4375 101.601562 176.371094 101.601562 C 178.339844 101.601562 179.914062 101.917969 179.914062 102.230469 Z M 179.914062 105.691406 C 179.914062 106.949219 176.453125 107.96875 174.324219 107.339844 C 171.886719 106.554688 172.59375 105.53125 175.820312 105.140625 C 177.394531 104.980469 178.96875 104.824219 179.363281 104.746094 C 179.679688 104.667969 179.914062 105.0625 179.914062 105.691406 Z M 177.554688 109.226562 C 177.554688 109.621094 176.371094 110.957031 174.957031 112.214844 C 171.175781 115.515625 169.679688 117.953125 169.679688 120.703125 C 169.679688 124.714844 171.964844 130.296875 175.113281 133.753906 C 177.632812 136.585938 178.339844 136.976562 180.152344 136.507812 C 181.566406 136.191406 182.75 135.011719 183.613281 133.28125 C 184.71875 130.925781 184.796875 129.902344 183.929688 125.105469 C 183.378906 122.121094 181.882812 117.480469 180.625 114.808594 C 177.945312 109.226562 178.417969 106.554688 181.175781 111.742188 C 189.046875 126.601562 187.15625 140.59375 177.554688 138.707031 C 174.5625 138.078125 171.648438 135.089844 169.050781 130.136719 C 167.476562 127.152344 167.003906 124.949219 167.003906 120.863281 C 166.925781 115.515625 166.925781 115.4375 170.074219 112.765625 C 171.808594 111.269531 173.617188 109.699219 174.011719 109.304688 C 175.035156 108.363281 177.554688 108.363281 177.554688 109.226562 Z M 180.542969 116.851562 C 182.589844 121.804688 183.613281 129.117188 182.75 132.417969 C 182.511719 133.519531 181.488281 134.855469 180.542969 135.328125 C 178.96875 136.191406 178.496094 135.957031 175.898438 132.96875 C 172.832031 129.507812 170.46875 123.929688 170.46875 120.074219 C 170.46875 118.347656 171.335938 116.929688 173.773438 114.652344 C 175.585938 113 177.394531 111.742188 177.867188 111.898438 C 178.339844 112.058594 179.519531 114.257812 180.542969 116.851562 Z M 172.042969 189.332031 C 174.40625 190.671875 179.992188 193.816406 184.480469 196.410156 L 192.511719 201.125 L 188.574219 204.113281 L 184.558594 207.179688 L 186.292969 208.515625 C 188.652344 210.480469 190.070312 210.324219 194.320312 207.570312 C 196.367188 206.234375 198.414062 205.214844 198.808594 205.214844 C 199.28125 205.214844 199.59375 208.515625 199.59375 212.917969 L 199.59375 220.621094 L 204.710938 223.921875 L 209.90625 227.226562 L 215.496094 224.394531 C 218.566406 222.824219 221.320312 221.957031 221.558594 222.351562 C 221.792969 222.742188 223.445312 225.179688 225.179688 227.855469 C 227.777344 231.785156 229.035156 232.964844 232.183594 234.300781 C 235.726562 235.714844 236.199219 235.792969 237.929688 234.691406 C 240.214844 233.199219 240.214844 233.199219 237.773438 229.03125 C 236.671875 227.226562 235.886719 225.652344 236.121094 225.652344 C 236.59375 225.652344 246.355469 231.628906 251.550781 235.085938 C 253.910156 236.660156 259.34375 240.039062 263.59375 242.554688 C 267.765625 245.148438 271.152344 247.507812 270.992188 247.898438 C 270.914062 248.214844 267.765625 250.179688 263.988281 252.222656 L 257.140625 255.839844 L 253.753906 254.03125 C 251.863281 253.011719 246.277344 249.785156 241.316406 246.878906 C 236.355469 243.96875 224.46875 237.050781 214.945312 231.546875 C 205.421875 225.96875 193.925781 219.285156 189.363281 216.613281 C 184.796875 213.9375 174.089844 207.730469 165.589844 202.777344 C 157.007812 197.824219 150 193.65625 150 193.421875 C 150 193.1875 153.308594 191.21875 157.324219 188.941406 C 163.621094 185.480469 164.800781 185.089844 166.140625 185.953125 C 167.003906 186.425781 169.679688 187.996094 172.042969 189.332031 Z M 153.070312 196.644531 C 155.511719 198.058594 161.179688 201.363281 165.746094 204.035156 C 174.40625 209.144531 191.25 218.96875 209.042969 229.269531 C 251.472656 253.796875 255.09375 255.917969 255.015625 256.703125 C 254.933594 257.097656 251.863281 259.0625 248.164062 261.027344 L 241.394531 264.566406 L 237.617188 262.523438 C 226.042969 256.390625 214.550781 249.707031 214.550781 249.15625 C 214.550781 248.84375 216.675781 247.269531 219.273438 245.699219 C 221.871094 244.125 224 242.710938 224 242.554688 C 224 242.398438 221.242188 240.667969 217.9375 238.78125 C 202.980469 230.289062 179.914062 217.003906 176.214844 214.648438 L 172.121094 212.050781 L 166.691406 215.355469 C 163.777344 217.082031 160.945312 218.578125 160.390625 218.578125 C 159.921875 218.578125 157.085938 217.082031 154.171875 215.195312 C 151.261719 213.308594 145.515625 209.851562 141.578125 207.570312 C 137.5625 205.214844 134.257812 203.011719 134.257812 202.777344 C 134.257812 202.304688 147.480469 194.285156 148.347656 194.207031 C 148.503906 194.207031 150.632812 195.308594 153.070312 196.644531 Z M 199.59375 201.125 C 199.59375 202.855469 198.730469 203.71875 194.476562 206.234375 C 190.148438 208.828125 189.203125 209.144531 187.785156 208.359375 C 186.761719 207.808594 186.371094 207.101562 186.761719 206.707031 C 188.496094 204.976562 198.492188 198.453125 199.042969 198.6875 C 199.359375 198.847656 199.59375 199.945312 199.59375 201.125 Z M 223.761719 208.75 C 238.5625 231.863281 238.953125 232.570312 237.695312 233.59375 C 236.277344 234.773438 236.828125 235.558594 224.785156 215.984375 C 218.644531 206 215.417969 199.945312 215.734375 199.160156 C 216.363281 197.429688 216.835938 198.058594 223.761719 208.75 Z M 220.457031 210.714844 C 231.949219 229.347656 234.152344 233.042969 233.839844 233.355469 C 233.679688 233.59375 232.5 233.277344 231.242188 232.804688 C 229.664062 232.175781 227.539062 229.582031 224.390625 224.628906 C 221.871094 220.621094 218.644531 215.511719 217.226562 213.308594 C 215.179688 210.085938 214.550781 208.359375 214.550781 205.449219 C 214.550781 201.125 214.550781 201.046875 220.457031 210.714844 Z M 138.746094 207.019531 C 141.65625 208.90625 147.402344 212.367188 151.339844 214.726562 C 155.355469 217.003906 158.660156 219.207031 158.660156 219.441406 C 158.660156 220.542969 144.253906 228.089844 143.152344 227.617188 C 141.261719 226.988281 121.347656 214.882812 119.378906 213.308594 C 117.648438 211.894531 117.726562 211.894531 124.574219 207.808594 C 128.351562 205.527344 131.894531 203.71875 132.445312 203.71875 C 132.996094 203.640625 135.832031 205.132812 138.746094 207.019531 Z M 123.945312 217.554688 C 136.855469 225.101562 142.050781 228.402344 142.128906 228.953125 C 142.128906 229.191406 138.746094 231.390625 134.574219 233.828125 L 127.015625 238.230469 L 114.734375 230.761719 C 107.964844 226.675781 101.902344 222.980469 101.273438 222.585938 C 100.488281 222.113281 101.195312 221.328125 104.027344 219.757812 C 106.15625 218.578125 109.460938 216.535156 111.429688 215.355469 C 113.398438 214.097656 115.285156 213.074219 115.679688 213.074219 C 116.074219 213.074219 119.773438 215.039062 123.945312 217.554688 Z M 187.867188 222.664062 C 214 237.679688 221.636719 242.238281 221.636719 242.789062 C 221.636719 243.105469 220.691406 243.890625 219.433594 244.597656 C 209.671875 250.414062 197.785156 257.410156 185.976562 264.488281 C 178.339844 269.125 171.726562 272.742188 171.414062 272.585938 C 168.816406 271.167969 124.101562 244.363281 122.921875 243.496094 C 121.582031 242.476562 121.898438 242.160156 127.25 239.175781 C 130.480469 237.367188 141.578125 231 151.96875 224.945312 C 162.359375 218.890625 171.253906 213.9375 171.726562 213.9375 C 172.199219 213.859375 179.441406 217.792969 187.867188 222.664062 Z M 108.59375 228.246094 C 112.925781 231 118.59375 234.457031 121.109375 235.949219 C 125.992188 238.859375 125.992188 238.546875 121.347656 241.691406 C 119.929688 242.632812 120.085938 242.867188 124.101562 245.464844 C 126.464844 246.957031 138.035156 253.953125 149.84375 261.027344 L 171.414062 273.84375 L 176.058594 271.640625 L 180.703125 269.441406 L 184.796875 271.640625 C 187.078125 272.898438 191.171875 275.257812 193.847656 276.828125 C 196.523438 278.480469 200.539062 280.761719 202.664062 281.859375 C 204.871094 282.960938 206.679688 283.984375 206.679688 284.140625 C 206.679688 284.613281 192.273438 292.710938 191.40625 292.710938 C 190.9375 292.710938 186.84375 290.507812 182.277344 287.757812 C 177.710938 285.082031 169.761719 280.367188 164.566406 277.300781 C 159.367188 274.234375 151.734375 269.753906 147.640625 267.316406 C 143.546875 264.800781 130.636719 257.253906 118.90625 250.414062 C 93.246094 235.402344 86.238281 231.15625 86.238281 230.449219 C 86.316406 229.503906 98.441406 222.664062 99.542969 222.980469 C 100.09375 223.136719 104.1875 225.574219 108.59375 228.246094 Z M 96.945312 238.703125 C 103.398438 242.476562 112.375 247.742188 116.9375 250.414062 C 121.503906 253.089844 129.140625 257.570312 133.863281 260.398438 C 138.664062 263.230469 148.742188 269.125 156.300781 273.527344 C 170.3125 281.703125 188.652344 292.550781 189.28125 293.023438 C 189.992188 293.496094 187.394531 295.382812 182.199219 298.210938 L 177.082031 301.042969 L 168.027344 296.011719 C 155.589844 289.015625 145.75 283.433594 136.777344 278.246094 C 132.605469 275.808594 115.757812 266.214844 99.464844 257.019531 C 83.089844 247.742188 69.707031 240.039062 69.707031 239.804688 C 69.707031 239.015625 83.484375 231.3125 84.347656 231.546875 C 84.820312 231.707031 90.488281 234.929688 96.945312 238.703125 Z M 88.128906 251.671875 C 98.125 257.332031 109.855469 264.015625 114.183594 266.53125 C 118.511719 269.046875 130.007812 275.570312 139.769531 281.074219 C 175.035156 300.964844 176.765625 301.984375 176.765625 303.558594 C 176.765625 304.421875 176.609375 305.050781 176.453125 305.050781 C 176.214844 305.050781 168.738281 300.886719 159.683594 295.855469 C 150.710938 290.824219 139.769531 284.769531 135.515625 282.488281 C 131.1875 280.132812 125.675781 277.066406 123.316406 275.648438 C 120.875 274.234375 115.523438 271.167969 111.429688 268.890625 C 97.652344 261.183594 74.035156 247.898438 71.519531 246.40625 C 69.785156 245.464844 68.921875 244.285156 68.921875 243.105469 C 68.921875 242.160156 69.15625 241.375 69.390625 241.375 C 69.707031 241.375 78.128906 246.011719 88.128906 251.671875 Z M 79.152344 257.253906 C 79.152344 260.164062 78.917969 262.601562 78.679688 262.601562 C 78.445312 262.601562 76.714844 261.65625 74.746094 260.554688 L 71.28125 258.511719 L 71.28125 247.585938 L 75.21875 249.707031 L 79.152344 251.832031 Z M 272.015625 251.359375 C 272.015625 253.324219 271.230469 253.953125 265.011719 257.332031 C 258.082031 260.949219 256.429688 261.183594 257.375 258.039062 C 257.769531 256.863281 269.5 249.550781 271.464844 249.316406 C 271.78125 249.238281 272.015625 250.179688 272.015625 251.359375 Z M 226.042969 257.332031 C 233.367188 261.34375 239.347656 264.957031 239.269531 265.351562 C 239.191406 266.609375 226.042969 273.683594 224.550781 273.292969 C 222.421875 272.742188 198.808594 259.21875 198.808594 258.511719 C 198.808594 257.960938 211.246094 250.179688 212.269531 250.101562 C 212.503906 250.023438 218.722656 253.324219 226.042969 257.332031 Z M 92.613281 259.535156 C 98.832031 263.070312 107.886719 268.023438 112.609375 270.617188 C 117.410156 273.292969 121.664062 275.648438 122.054688 275.964844 C 122.527344 276.277344 131.03125 281.074219 140.949219 286.578125 C 166.925781 300.964844 164.957031 299.546875 164.957031 304.660156 C 164.957031 307.015625 164.722656 308.980469 164.484375 308.980469 C 163.933594 308.980469 157.792969 305.679688 137.800781 294.515625 C 130.007812 290.195312 120.246094 284.847656 116.152344 282.648438 C 112.058594 280.445312 105.683594 276.828125 101.980469 274.707031 C 98.28125 272.503906 91.828125 268.652344 87.65625 266.214844 L 79.941406 261.734375 L 79.941406 257.492188 C 79.941406 255.132812 80.253906 253.167969 80.570312 253.167969 C 80.964844 253.167969 86.394531 256.074219 92.613281 259.535156 Z M 256.273438 259.769531 C 256.273438 261.421875 255.171875 262.363281 249.898438 265.273438 C 246.355469 267.238281 243.207031 268.890625 242.8125 268.890625 C 241.394531 268.890625 242.183594 265.746094 243.914062 264.644531 C 245.726562 263.542969 255.722656 257.960938 256.117188 257.960938 C 256.195312 257.882812 256.273438 258.75 256.273438 259.769531 Z M 267.292969 260.949219 C 267.292969 263.859375 267.058594 264.09375 262.019531 267.082031 C 259.027344 268.8125 255.09375 271.089844 253.125 272.191406 C 251.15625 273.292969 239.820312 279.738281 227.933594 286.578125 C 216.046875 293.417969 203.136719 300.726562 199.359375 302.851562 C 195.5 304.894531 191.09375 307.488281 189.519531 308.589844 C 187.945312 309.6875 186.371094 310.554688 186.054688 310.554688 C 185.660156 310.554688 185.425781 308.667969 185.425781 306.386719 C 185.425781 302.378906 185.503906 302.222656 188.417969 300.726562 C 189.992188 299.863281 192.589844 298.449219 194.085938 297.503906 C 195.582031 296.640625 198.808594 294.832031 201.167969 293.496094 C 209.199219 289.09375 229.824219 277.773438 242.496094 270.777344 C 260.289062 260.949219 266.035156 257.960938 266.742188 257.882812 C 267.058594 257.882812 267.292969 259.21875 267.292969 260.949219 Z M 206.601562 264.722656 C 211.640625 267.554688 217.386719 270.855469 219.511719 271.957031 C 221.558594 273.054688 223.132812 274.3125 222.976562 274.707031 C 222.582031 275.964844 209.671875 283.039062 207.859375 283.039062 C 206.914062 283.039062 204.082031 281.78125 201.484375 280.210938 C 198.964844 278.558594 193.691406 275.492188 189.832031 273.292969 C 185.976562 271.089844 182.828125 268.96875 182.75 268.574219 C 182.671875 267.789062 195.421875 259.613281 196.761719 259.535156 C 197.15625 259.457031 201.5625 261.8125 206.601562 264.722656 Z M 76.242188 262.601562 C 77.738281 263.464844 79.546875 264.015625 80.253906 263.699219 C 80.964844 263.464844 81.671875 263.699219 81.910156 264.328125 C 82.144531 264.878906 82.222656 278.164062 82.144531 293.808594 L 81.910156 322.347656 L 77.027344 319.042969 L 72.070312 315.820312 L 72.070312 288.464844 C 72.070312 271.796875 72.382812 261.027344 72.777344 261.027344 C 73.25 261.027344 74.746094 261.734375 76.242188 262.601562 Z M 85.53125 270.777344 C 85.6875 280.445312 85.371094 303.085938 85.058594 303.320312 C 84.898438 303.480469 84.429688 303.402344 83.957031 303.085938 C 83.40625 302.773438 83.089844 296.246094 83.089844 283.824219 C 83.089844 267.394531 83.246094 265.039062 84.269531 265.429688 C 85.136719 265.824219 85.449219 267.238281 85.53125 270.777344 Z M 241.316406 268.496094 C 241.316406 270.070312 240.449219 270.855469 236.828125 272.742188 C 234.308594 274.078125 231.242188 275.808594 229.902344 276.671875 C 226.832031 278.792969 225.414062 278.792969 225.730469 276.59375 C 225.886719 275.414062 228.011719 273.683594 233.050781 270.777344 C 236.988281 268.496094 240.371094 266.609375 240.765625 266.609375 C 241.082031 266.53125 241.316406 267.394531 241.316406 268.496094 Z M 90.960938 269.597656 C 90.960938 269.832031 90.09375 271.089844 88.992188 272.425781 L 87.105469 274.785156 L 87.027344 271.089844 C 87.027344 267.394531 87.027344 267.394531 88.992188 268.261719 C 90.09375 268.730469 90.960938 269.359375 90.960938 269.597656 Z M 265.71875 293.652344 L 265.71875 319.988281 L 262.097656 322.582031 C 260.128906 323.917969 257.453125 325.726562 256.195312 326.511719 L 253.910156 328.007812 L 253.910156 272.976562 L 258.871094 270.226562 C 261.546875 268.652344 264.222656 267.394531 264.773438 267.394531 C 265.484375 267.316406 265.71875 273.054688 265.71875 293.652344 Z M 93.324219 271.167969 C 93.324219 271.484375 91.984375 274.234375 90.410156 277.144531 C 87.496094 282.253906 87.417969 282.410156 87.183594 280.050781 C 87.027344 278.324219 87.65625 276.515625 89.386719 274 C 91.671875 270.699219 93.324219 269.519531 93.324219 271.167969 Z M 97.335938 273.449219 L 99.070312 274.941406 L 96.15625 280.132812 C 94.425781 283.355469 92.140625 286.183594 90.332031 287.363281 L 87.417969 289.328125 L 87.183594 287.207031 C 86.945312 285.003906 93.558594 272.035156 94.898438 272.035156 C 95.210938 272.035156 96.316406 272.664062 97.335938 273.449219 Z M 250.605469 278.480469 L 250.371094 280.289062 L 249.347656 278.480469 C 248.480469 276.988281 248.480469 276.4375 249.347656 275.414062 C 250.289062 274.234375 250.371094 274.234375 250.605469 275.414062 C 250.761719 276.121094 250.761719 277.535156 250.605469 278.480469 Z M 103.558594 276.75 C 104.816406 277.695312 105.289062 278.480469 104.738281 278.953125 C 103.242188 280.289062 96.316406 283.90625 95.921875 283.511719 C 95.449219 283.039062 100.328125 275.179688 101.117188 275.179688 C 101.351562 275.179688 102.453125 275.886719 103.558594 276.75 Z M 224.785156 277.773438 C 224.785156 279.1875 223.917969 280.050781 221.085938 281.546875 C 218.960938 282.566406 215.574219 284.375 213.527344 285.554688 C 209.121094 288.148438 208.253906 288.226562 208.253906 286.261719 C 208.253906 285.242188 210.535156 283.511719 215.96875 280.445312 C 220.140625 278.007812 223.839844 276.042969 224.234375 275.964844 C 224.550781 275.964844 224.785156 276.828125 224.785156 277.773438 Z M 248.792969 282.253906 C 251.15625 286.8125 251.628906 295.144531 249.582031 294.359375 C 248.636719 293.96875 240.921875 280.679688 241.472656 280.289062 C 246.277344 277.066406 246.117188 276.988281 248.792969 282.253906 Z M 113.082031 282.019531 C 116.074219 283.667969 118.511719 285.164062 118.511719 285.398438 C 118.511719 285.632812 114.890625 287.914062 110.40625 290.429688 C 105.996094 293.023438 99.226562 296.953125 95.371094 299.3125 C 91.511719 301.59375 88.050781 303.480469 87.65625 303.480469 C 87.339844 303.480469 87.027344 300.492188 87.027344 296.953125 L 87.027344 290.351562 L 90.804688 288.226562 C 92.851562 287.128906 97.179688 284.613281 100.40625 282.648438 C 103.636719 280.761719 106.625 279.1875 107.019531 279.1875 C 107.335938 279.109375 110.089844 280.445312 113.082031 282.019531 Z M 252.886719 283.984375 C 252.730469 285.003906 252.574219 284.375 252.574219 282.648438 C 252.496094 280.917969 252.652344 280.132812 252.886719 280.839844 C 253.046875 281.625 253.046875 283.039062 252.886719 283.984375 Z M 243.363281 286.578125 C 244.78125 289.09375 245.804688 291.371094 245.644531 291.53125 C 245.332031 291.84375 234.230469 284.769531 234.230469 284.21875 C 234.230469 283.511719 238.5625 281.546875 239.664062 281.703125 C 240.292969 281.78125 241.945312 283.984375 243.363281 286.578125 Z M 207.46875 287.207031 C 207.46875 288.621094 206.050781 289.722656 199.988281 293.101562 C 195.816406 295.304688 192.117188 297.191406 191.722656 297.191406 C 190.621094 297.191406 190.777344 295.066406 191.960938 294.046875 C 193.140625 293.023438 206.050781 285.632812 206.914062 285.476562 C 207.230469 285.398438 207.46875 286.183594 207.46875 287.207031 Z M 238.011719 288.308594 C 240.449219 289.878906 243.597656 291.765625 244.9375 292.550781 C 250.761719 295.773438 250.527344 295.460938 250.683594 301.59375 C 250.761719 304.738281 250.527344 307.488281 250.132812 307.722656 C 249.816406 307.882812 247.929688 307.09375 245.960938 305.914062 C 244.070312 304.660156 238.167969 301.121094 232.894531 298.054688 C 227.539062 294.910156 223.054688 292.082031 222.816406 291.765625 C 222.582031 291.214844 229.664062 286.183594 230.609375 286.183594 C 230.769531 286.183594 235.019531 288.699219 240.136719 291.6875 C 245.253906 294.753906 249.582031 297.113281 249.738281 296.875 C 249.898438 296.71875 246.117188 294.203125 241.394531 291.292969 C 236.59375 288.464844 232.65625 285.949219 232.65625 285.710938 C 232.65625 285.003906 233.679688 285.476562 238.011719 288.308594 Z M 125.597656 289.015625 C 129.691406 291.453125 130.792969 292.550781 133.707031 297.742188 C 135.515625 300.964844 139.21875 307.410156 141.972656 311.890625 C 144.648438 316.449219 146.851562 320.300781 146.851562 320.460938 C 146.851562 320.617188 148.585938 323.683594 150.710938 327.21875 C 152.757812 330.835938 155.828125 336.183594 157.480469 339.089844 L 160.472656 344.515625 L 157.792969 343.179688 C 156.300781 342.390625 151.96875 339.957031 148.035156 337.675781 C 144.175781 335.394531 135.988281 330.679688 129.929688 327.296875 C 91.433594 305.367188 88.679688 303.714844 90.648438 302.929688 C 91.117188 302.773438 97.890625 298.917969 105.601562 294.4375 C 113.398438 289.878906 119.929688 286.183594 120.246094 286.183594 C 120.558594 286.183594 122.921875 287.441406 125.597656 289.015625 Z M 227.933594 296.246094 C 231.160156 298.289062 236.121094 301.277344 238.953125 302.851562 C 241.789062 304.5 245.09375 306.464844 246.277344 307.253906 L 248.558594 308.824219 L 240.765625 313.070312 C 231.398438 318.257812 196.050781 338.617188 193.375 340.347656 C 191.722656 341.449219 191.960938 340.664062 195.265625 334.53125 C 197.390625 330.601562 200.539062 325.175781 202.269531 322.347656 C 205.105469 317.707031 211.246094 307.015625 217.070312 296.5625 C 218.410156 294.203125 219.90625 292.472656 220.691406 292.472656 C 221.398438 292.472656 224.707031 294.203125 227.933594 296.246094 Z M 137.640625 295.617188 C 141.261719 297.660156 142.285156 298.839844 146.222656 305.601562 C 148.664062 309.847656 153.148438 317.628906 156.21875 322.976562 L 161.886719 332.644531 L 161.652344 338.304688 L 161.414062 343.964844 L 159.367188 340.425781 C 158.1875 338.460938 154.410156 331.78125 150.789062 325.492188 C 147.167969 319.203125 141.65625 309.609375 138.507812 304.03125 C 135.28125 298.527344 132.683594 293.808594 132.683594 293.652344 C 132.683594 292.945312 133.46875 293.257812 137.640625 295.617188 Z M 190.148438 296.71875 C 190.148438 298.289062 189.046875 299.15625 183.851562 301.828125 C 178.261719 304.738281 177.554688 304.972656 177.554688 303.636719 C 177.554688 302.613281 179.441406 301.042969 183.695312 298.527344 C 187 296.5625 189.832031 294.910156 189.992188 294.910156 C 190.070312 294.832031 190.148438 295.695312 190.148438 296.71875 Z M 215.496094 297.503906 C 214.628906 299 210.300781 306.464844 205.890625 314.171875 C 201.484375 321.953125 195.5 332.171875 192.589844 337.046875 L 187.394531 345.773438 L 187.15625 341.054688 C 186.921875 336.496094 187.078125 336.183594 192.746094 326.433594 C 195.972656 320.929688 200.855469 312.597656 203.53125 307.882812 C 207.546875 300.964844 209.199219 298.917969 212.113281 297.113281 C 216.675781 294.125 217.386719 294.28125 215.496094 297.503906 Z M 205.105469 303.242188 C 204.082031 304.894531 201.089844 310.238281 198.335938 315.035156 C 195.5 319.910156 191.878906 326.039062 190.226562 328.714844 L 187.15625 333.507812 L 187.078125 322.109375 C 186.921875 311.890625 187.078125 310.710938 188.339844 310.238281 C 189.125 309.925781 192.195312 308.273438 195.109375 306.464844 C 198.019531 304.738281 200.617188 303.480469 200.855469 303.714844 C 201.25 304.109375 196.132812 313.699219 190.621094 322.738281 C 189.046875 325.332031 187.785156 327.769531 187.785156 328.242188 C 187.785156 329.5 191.328125 323.917969 197.3125 313.226562 C 200.382812 307.644531 203.453125 302.457031 204.160156 301.671875 C 206.285156 299.234375 206.914062 300.257812 205.105469 303.242188 Z M 155.746094 305.601562 L 161.808594 309.140625 L 161.808594 317.707031 C 161.808594 322.425781 161.652344 326.277344 161.414062 326.277344 C 161.257812 326.277344 160.15625 324.625 158.976562 322.503906 C 157.792969 320.460938 154.566406 315.035156 151.8125 310.316406 C 149.058594 305.679688 146.851562 301.671875 146.851562 301.433594 C 146.851562 300.648438 149.214844 301.75 155.746094 305.601562 Z M 169.679688 302.691406 L 172.832031 304.265625 L 172.832031 317 L 169.523438 315.035156 L 166.140625 313.070312 L 165.902344 307.09375 C 165.746094 303.792969 165.902344 301.121094 166.140625 301.121094 C 166.375 301.121094 168.027344 301.828125 169.679688 302.691406 Z M 183.851562 308.117188 L 183.851562 312.832031 L 179.441406 314.800781 C 177.003906 315.898438 174.875 316.84375 174.71875 316.84375 C 174.5625 316.84375 174.40625 314.171875 174.40625 310.945312 C 174.40625 305.445312 174.484375 305.128906 175.820312 305.914062 C 176.921875 306.625 177.789062 306.464844 179.914062 305.128906 C 181.410156 304.265625 182.90625 303.480469 183.300781 303.480469 C 183.613281 303.480469 183.851562 305.601562 183.851562 308.117188 Z M 91.828125 306.464844 C 93.714844 307.722656 106.074219 314.800781 119.300781 322.347656 C 132.527344 329.8125 145.4375 337.203125 148.035156 338.855469 C 150.632812 340.425781 154.644531 342.707031 156.929688 343.886719 C 160.785156 345.851562 162.597656 347.738281 161.574219 348.761719 C 161.335938 348.996094 154.960938 345.617188 147.480469 341.214844 C 119.695312 324.863281 100.488281 313.621094 92.773438 309.140625 C 89.625 307.332031 86.867188 305.445312 86.632812 305.050781 C 85.6875 303.558594 88.285156 304.265625 91.828125 306.464844 Z M 95.292969 311.734375 C 99.621094 314.171875 105.996094 317.945312 109.460938 319.988281 C 112.925781 322.109375 122.84375 327.925781 131.503906 332.957031 C 140.160156 337.988281 150.550781 344.121094 154.566406 346.480469 L 161.808594 350.804688 L 161.808594 354.261719 C 161.808594 356.148438 161.652344 357.722656 161.496094 357.722656 C 161.023438 357.722656 157.324219 355.597656 146.851562 349.46875 C 138.195312 344.277344 124.730469 336.496094 112.214844 329.183594 C 108.121094 326.828125 100.015625 322.109375 94.347656 318.730469 L 83.875 312.675781 L 83.875 308.746094 C 83.875 304.894531 83.875 304.894531 85.6875 305.996094 C 86.632812 306.625 90.960938 309.21875 95.292969 311.734375 Z M 250.761719 309.609375 C 250.761719 309.925781 245.566406 313.148438 239.191406 316.765625 C 221.714844 326.75 207.859375 334.6875 199.988281 339.328125 C 192.195312 343.886719 190.148438 344.828125 190.148438 343.886719 C 190.226562 343.179688 192.273438 341.921875 209.433594 332.171875 C 214.238281 329.421875 225.179688 323.132812 233.839844 318.179688 C 249.582031 309.058594 250.761719 308.429688 250.761719 309.609375 Z M 250.761719 315.113281 L 250.761719 318.886719 L 237.222656 326.667969 C 221.085938 335.789062 207.074219 343.886719 198.414062 349.074219 C 194.949219 351.117188 190.9375 353.398438 189.597656 354.105469 L 187 355.441406 L 187 351.824219 C 187 347.421875 185.660156 348.367188 216.125 331.070312 C 228.878906 323.761719 241.867188 316.371094 244.859375 314.640625 C 247.929688 312.832031 250.449219 311.339844 250.605469 311.339844 C 250.683594 311.339844 250.761719 313.070312 250.761719 315.113281 Z M 85.449219 318.023438 C 85.449219 321.796875 83.957031 323.761719 83.71875 320.222656 C 83.640625 319.042969 83.5625 317.316406 83.484375 316.449219 C 83.324219 314.40625 83.796875 313.542969 84.742188 314.089844 C 85.136719 314.40625 85.449219 316.136719 85.449219 318.023438 Z M 85.449219 318.023438 " fill-opacity="1" fill-rule="nonzero"/></g><g clip-path="url(#8f53095dab)"><g clip-path="url(#5fab905f98)"><path fill="#2b2c2d" d="M 246.148438 201.898438 L 252.90625 201.898438 L 252.90625 208.425781 L 246.148438 208.425781 Z M 246.148438 201.898438 " fill-opacity="1" fill-rule="nonzero"/></g></g><g clip-path="url(#8f568a1f1d)"><g clip-path="url(#28be918fc4)"><path fill="#2b2c2d" d="M 240.824219 200.324219 L 247.578125 200.324219 L 247.578125 206.851562 L 240.824219 206.851562 Z M 240.824219 200.324219 " fill-opacity="1" fill-rule="nonzero"/></g></g><g clip-path="url(#982c647624)"><g clip-path="url(#099fb210e7)"><path fill="#2b2c2d" d="M 168.148438 142.726562 L 178.800781 142.726562 L 178.800781 198.84375 L 168.148438 198.84375 Z M 168.148438 142.726562 " fill-opacity="1" fill-rule="nonzero"/></g></g><path fill="#ffffff" d="M 197.574219 127.078125 C 197.574219 137.96875 187.730469 146.792969 175.585938 146.792969 C 163.441406 146.792969 153.597656 137.96875 153.597656 127.078125 C 153.597656 116.191406 163.441406 107.363281 175.585938 107.363281 C 187.730469 107.363281 197.574219 116.191406 197.574219 127.078125 " fill-opacity="1" fill-rule="nonzero"/><path fill="#ffffff" d="M 172.550781 124.804688 C 172.550781 127.738281 170.175781 130.113281 167.246094 130.113281 C 164.3125 130.113281 161.9375 127.738281 161.9375 124.804688 C 161.9375 121.871094 164.3125 119.496094 167.246094 119.496094 C 170.175781 119.496094 172.550781 121.871094 172.550781 124.804688 " fill-opacity="1" fill-rule="nonzero"/><path fill="#ffffff" d="M 189.234375 124.804688 C 189.234375 127.738281 186.859375 130.113281 183.925781 130.113281 C 180.992188 130.113281 178.617188 127.738281 178.617188 124.804688 C 178.617188 121.871094 180.992188 119.496094 183.925781 119.496094 C 186.859375 119.496094 189.234375 121.871094 189.234375 124.804688 " fill-opacity="1" fill-rule="nonzero"/><path fill="#2b2c2d" d="M 162.808594 114.1875 C 162.574219 114.1875 162.339844 114.078125 162.195312 113.875 C 161.949219 113.535156 162.023438 113.0625 162.363281 112.816406 C 164.835938 111.027344 167.789062 109.789062 170.902344 109.226562 C 171.3125 109.152344 171.707031 109.429688 171.78125 109.839844 C 171.855469 110.253906 171.582031 110.648438 171.167969 110.722656 C 168.277344 111.238281 165.542969 112.386719 163.25 114.042969 C 163.117188 114.140625 162.960938 114.1875 162.808594 114.1875 " fill-opacity="1" fill-rule="nonzero"/><path fill="#2b2c2d" d="M 160.238281 116.4375 C 160.054688 116.4375 159.867188 116.371094 159.71875 116.234375 C 159.417969 115.945312 159.402344 115.464844 159.6875 115.160156 L 159.878906 114.960938 C 160.171875 114.660156 160.648438 114.65625 160.949219 114.949219 C 161.25 115.242188 161.253906 115.722656 160.960938 116.019531 L 160.789062 116.199219 C 160.640625 116.359375 160.441406 116.4375 160.238281 116.4375 " fill-opacity="1" fill-rule="nonzero"/><path fill="#2b2c2d" d="M 197.574219 127.078125 C 197.574219 137.96875 187.730469 146.792969 175.585938 146.792969 C 167.039062 146.792969 159.632812 142.425781 156 136.042969 C 159.972656 141.167969 166.585938 144.519531 174.070312 144.519531 C 186.214844 144.519531 196.058594 135.691406 196.058594 124.804688 C 196.058594 121.574219 195.191406 118.535156 193.65625 115.84375 C 196.125 119.027344 197.574219 122.902344 197.574219 127.078125 " fill-opacity="1" fill-rule="nonzero"/><g clip-path="url(#93cb237104)"><path fill="#2b2c2d" d="M 175.585938 146.035156 C 163.875 146.035156 154.355469 137.53125 154.355469 127.078125 C 154.355469 116.628906 163.875 108.125 175.585938 108.125 C 187.292969 108.125 196.816406 116.628906 196.816406 127.078125 C 196.816406 137.53125 187.292969 146.035156 175.585938 146.035156 Z M 175.585938 106.605469 C 163.042969 106.605469 152.835938 115.792969 152.835938 127.078125 C 152.835938 138.367188 163.042969 147.550781 175.585938 147.550781 C 188.128906 147.550781 198.332031 138.367188 198.332031 127.078125 C 198.332031 115.792969 188.128906 106.605469 175.585938 106.605469 " fill-opacity="1" fill-rule="nonzero"/></g><path fill="#2b2c2d" d="M 162.695312 124.804688 C 162.695312 122.296875 164.734375 120.253906 167.246094 120.253906 C 169.753906 120.253906 171.792969 122.296875 171.792969 124.804688 C 171.792969 127.3125 169.753906 129.355469 167.246094 129.355469 C 164.734375 129.355469 162.695312 127.3125 162.695312 124.804688 Z M 173.308594 124.804688 C 173.308594 121.460938 170.589844 118.738281 167.246094 118.738281 C 163.902344 118.738281 161.179688 121.460938 161.179688 124.804688 C 161.179688 128.148438 163.902344 130.871094 167.246094 130.871094 C 170.589844 130.871094 173.308594 128.148438 173.308594 124.804688 " fill-opacity="1" fill-rule="nonzero"/><path fill="#2b2c2d" d="M 183.925781 129.355469 C 181.417969 129.355469 179.375 127.3125 179.375 124.804688 C 179.375 122.296875 181.417969 120.253906 183.925781 120.253906 C 186.433594 120.253906 188.476562 122.296875 188.476562 124.804688 C 188.476562 127.3125 186.433594 129.355469 183.925781 129.355469 Z M 183.925781 118.738281 C 180.582031 118.738281 177.859375 121.460938 177.859375 124.804688 C 177.859375 128.148438 180.582031 130.871094 183.925781 130.871094 C 187.269531 130.871094 189.992188 128.148438 189.992188 124.804688 C 189.992188 121.460938 187.269531 118.738281 183.925781 118.738281 " fill-opacity="1" fill-rule="nonzero"/><path fill="#2b2c2d" d="M 168.003906 125.5625 L 168.003906 124.046875 C 168.003906 123.628906 167.664062 123.289062 167.246094 123.289062 C 166.828125 123.289062 166.484375 123.628906 166.484375 124.046875 L 166.484375 125.5625 C 166.484375 125.980469 166.828125 126.320312 167.246094 126.320312 C 167.664062 126.320312 168.003906 125.980469 168.003906 125.5625 " fill-opacity="1" fill-rule="nonzero"/><path fill="#2b2c2d" d="M 183.925781 123.289062 C 183.507812 123.289062 183.167969 123.628906 183.167969 124.046875 L 183.167969 125.5625 C 183.167969 125.980469 183.507812 126.320312 183.925781 126.320312 C 184.34375 126.320312 184.683594 125.980469 184.683594 125.5625 L 184.683594 124.046875 C 184.683594 123.628906 184.34375 123.289062 183.925781 123.289062 " fill-opacity="1" fill-rule="nonzero"/><path fill="#2b2c2d" d="M 167.246094 117.222656 C 167.664062 117.222656 168.003906 116.882812 168.003906 116.464844 C 168.003906 116.046875 167.664062 115.707031 167.246094 115.707031 C 163.46875 115.707031 160.140625 117.976562 158.769531 121.496094 C 158.613281 121.886719 158.804688 122.324219 159.195312 122.476562 C 159.289062 122.511719 159.378906 122.53125 159.472656 122.53125 C 159.773438 122.53125 160.0625 122.347656 160.175781 122.046875 C 161.324219 119.113281 164.097656 117.222656 167.246094 117.222656 " fill-opacity="1" fill-rule="nonzero"/><path fill="#2b2c2d" d="M 183.925781 115.707031 C 183.507812 115.707031 183.167969 116.046875 183.167969 116.464844 C 183.167969 116.882812 183.507812 117.222656 183.925781 117.222656 C 187.074219 117.222656 189.847656 119.113281 190.992188 122.046875 C 191.109375 122.347656 191.394531 122.53125 191.699219 122.53125 C 191.789062 122.53125 191.882812 122.511719 191.972656 122.476562 C 192.363281 122.324219 192.558594 121.886719 192.402344 121.496094 C 191.03125 117.976562 187.703125 115.707031 183.925781 115.707031 " fill-opacity="1" fill-rule="nonzero"/><path fill="#2b2c2d" d="M 185.824219 134.765625 C 185.464844 134.554688 185 134.675781 184.789062 135.039062 C 182.414062 139.113281 178.472656 139.96875 175.585938 139.96875 C 172.699219 139.96875 168.757812 139.113281 166.382812 135.039062 C 166.171875 134.675781 165.710938 134.554688 165.347656 134.765625 C 164.984375 134.976562 164.863281 135.441406 165.074219 135.800781 C 167.210938 139.46875 170.945312 141.484375 175.585938 141.484375 C 180.226562 141.484375 183.960938 139.46875 186.097656 135.800781 C 186.308594 135.441406 186.1875 134.976562 185.824219 134.765625 " fill-opacity="1" fill-rule="nonzero"/><g clip-path="url(#a0ab7e12c0)"><g clip-path="url(#e83226ccf0)"><path fill="#2b2c2d" d="M 156.449219 190.351562 L 176.023438 190.351562 L 176.023438 221.699219 L 156.449219 221.699219 Z M 156.449219 190.351562 " fill-opacity="1" fill-rule="nonzero"/></g></g></svg>